 <svg  version="1.0" xmlns="http://www.w3.org/2000/svg"  width="250.000000pt" height="113.000000pt" viewBox="0 0 250.000000 113.000000"  preserveAspectRatio="xMidYMid meet">  <g transform="translate(0.000000,113.000000) scale(0.100000,-0.100000)" fill="#00000" stroke="none"> <path d="M915 1090 c-390 -47 -639 -147 -722 -288 l-28 -47 -3 -352 -3 -353 1148 0 1148 0 -3 352 c-4 396 -2 386 -84 467 -88 87 -312 169 -557 206 -58 9 -119 18 -136 21 -16 3 -160 7 -320 9 -236 3 -318 0 -440 -15z m715 -28 c25 -6 80 -14 124 -17 70 -5 108 -11 196 -31 13 -3 27 -9 30 -13 3 -4 12 -11 20 -14 8 -3 0 -6 -17 -6 -18 -1 -33 -6 -33 -11 0 -6 -7 -10 -17 -8 -11 2 -19 -8 -26 -32 -11 -42 -3 -123 12 -128 6 -2 8 -8 5 -13 -3 -6 0 -16 6 -24 10 -12 9 -15 -8 -15 -11 0 -22 6 -25 13 -2 6 -3 4 -2 -5 2 -10 0 -18 -4 -18 -4 0 -29 61 -56 135 -26 74 -54 140 -60 145 -7 6 -44 14 -81 19 -61 7 -71 6 -86 -10 -10 -10 -18 -25 -18 -34 0 -8 -5 -15 -11 -15 -5 0 -8 -4 -5 -8 3 -5 -19 -71 -49 -148 -33 -85 -54 -128 -55 -111 l0 27 -95 0 c-88 0 -95 1 -95 20 0 11 -5 19 -10 17 -6 -1 -11 48 -13 129 -2 72 -7 136 -11 143 -5 8 -31 12 -74 11 -112 -2 -133 3 -37 10 131 9 443 4 495 -8z m-607 -9 c-13 -2 -33 -2 -45 0 -13 2 -3 4 22 4 25 0 35 -2 23 -4z m-188 -25 c-66 -11 -126 -24 -132 -30 -18 -14 -16 -83 2 -98 9 -8 28 -10 55 -5 26 4 40 3 40 -4 0 -6 -8 -11 -17 -11 -23 0 -12 -9 18 -13 24 -4 24 -6 27 -123 2 -65 8 -124 13 -130 9 -11 119 -7 131 4 4 4 8 65 9 135 2 71 7 131 12 134 4 2 3 11 -4 19 -9 11 -7 14 12 14 13 0 41 3 62 6 l37 7 -1 -151 c0 -83 2 -156 6 -162 4 -6 93 -10 251 -10 233 0 244 1 256 20 7 11 22 20 33 21 17 1 16 2 -5 9 -20 6 -14 8 28 9 53 1 65 -4 104 -46 18 -19 32 -23 81 -23 42 0 63 5 71 15 10 14 15 14 51 -2 53 -23 233 -23 285 0 64 28 84 65 65 114 -8 17 -10 35 -7 39 4 4 2 4 -4 1 -6 -4 -19 0 -29 7 -17 12 -16 13 6 12 33 -1 34 23 3 70 -25 37 -25 38 -3 18 13 -12 30 -19 38 -16 10 3 12 0 8 -11 -4 -10 -2 -14 6 -11 14 5 47 -35 66 -82 7 -17 11 -60 9 -100 l-3 -69 -65 -6 -65 -6 70 -1 70 -2 -3 -227 c-1 -126 -5 -234 -7 -241 -3 -9 -27 -12 -85 -11 l-80 2 29 18 c33 20 71 92 71 135 -1 73 -68 154 -128 154 -13 0 -20 4 -17 10 3 5 28 10 54 10 55 0 71 12 71 57 0 42 -15 49 -117 52 -97 3 -123 -7 -123 -50 0 -18 -4 -28 -10 -24 -6 4 -10 -13 -10 -43 0 -36 -5 -54 -20 -67 -20 -18 -20 -18 -3 15 14 28 14 40 4 74 -7 23 -13 46 -13 53 -1 7 -4 11 -7 10 -3 0 -20 7 -38 16 -41 22 -105 22 -146 0 -18 -9 -35 -16 -39 -15 -5 1 -7 -1 -6 -6 1 -4 -3 -24 -9 -45 -12 -39 -4 -85 19 -115 7 -10 0 -6 -15 7 -30 27 -36 71 -15 115 10 23 8 29 -16 51 -25 23 -35 25 -115 25 -66 0 -92 -4 -101 -15 -13 -15 -39 -148 -40 -198 0 -16 -4 -26 -9 -23 -5 4 -7 28 -4 54 2 26 5 57 6 70 1 12 5 22 10 22 12 0 8 27 -7 39 -12 10 -14 8 -9 -11 4 -21 3 -21 -14 4 -37 58 -118 73 -194 38 -24 -11 -41 -20 -36 -20 4 0 0 -11 -9 -25 -15 -24 -16 -44 -1 -125 5 -25 4 -25 -64 -25 -51 0 -68 3 -64 12 2 7 1 12 -3 11 -4 -2 -20 10 -36 25 -25 23 -26 27 -10 27 16 0 17 2 4 10 -21 13 -33 12 -24 -2 5 -8 2 -9 -10 -5 -10 4 -29 7 -42 7 -13 0 -24 5 -24 10 0 6 27 10 60 10 48 0 61 4 70 19 33 63 -4 91 -121 91 -95 0 -102 -4 -114 -59 -5 -25 -10 -30 -17 -20 -6 10 -7 7 -3 -10 8 -26 -4 -156 -13 -147 -3 3 -4 35 -3 71 3 89 -12 127 -60 148 -77 34 -163 10 -197 -53 -13 -26 -12 -80 3 -114 6 -15 5 -17 -5 -11 -9 5 -11 4 -6 -4 4 -6 12 -8 18 -5 6 4 3 -5 -8 -19 -19 -26 -54 -37 -54 -17 0 6 7 10 16 8 10 -2 19 3 21 10 3 7 -4 12 -16 12 -20 0 -21 5 -21 94 0 63 -4 97 -12 104 -17 13 -66 7 -87 -11 -9 -8 -22 -12 -28 -10 -7 3 -13 0 -13 -7 0 -6 4 -8 10 -5 16 10 12 -1 -22 -55 -23 -37 -34 -47 -40 -38 -6 8 -7 4 -2 -12 3 -14 3 -22 -1 -18 -11 11 -55 -83 -55 -119 0 -58 6 -63 80 -63 l68 0 4 -45 3 -45 -112 0 c-98 0 -112 2 -116 18 -2 9 -5 117 -6 240 l-2 222 882 0 c485 0 880 3 876 6 -3 3 -397 6 -876 5 l-871 0 -1 27 c-6 114 16 187 72 236 38 34 115 77 122 69 4 -3 14 0 22 7 9 7 -5 -31 -30 -85 -25 -53 -45 -100 -46 -104 0 -3 -5 3 -10 14 -8 17 -8 15 -4 -7 3 -16 1 -28 -5 -28 -5 0 -10 -7 -10 -15 0 -8 -4 -15 -8 -15 -5 0 -9 -6 -10 -12 -8 -67 -12 -63 58 -66 57 -3 67 0 82 19 10 11 18 16 18 9 0 -7 12 -3 29 9 18 13 43 21 68 20 21 -1 30 -3 20 -6 -9 -2 -15 -9 -11 -14 3 -5 10 -7 15 -3 6 3 17 -3 25 -15 13 -17 25 -21 73 -21 90 0 93 9 36 136 -42 95 -52 121 -54 147 -1 5 -6 5 -12 1 -9 -5 -10 2 -6 22 3 16 4 23 1 16 -4 -8 -15 1 -30 24 -13 19 -22 39 -20 43 6 10 88 27 190 41 44 6 82 12 84 15 3 3 26 5 51 4 33 -1 12 -7 -74 -21z m405 -144 l0 -165 105 3 105 3 0 -52 0 -53 -165 0 -165 0 0 194 c0 107 -3 201 -6 209 -6 16 15 22 94 25 l32 2 0 -166z m-150 106 l0 -50 -66 0 -67 0 5 -160 5 -160 -63 0 -64 0 0 151 0 151 -47 -6 c-27 -4 -56 -9 -65 -12 -15 -5 -18 2 -18 39 l0 45 93 16 c96 17 212 33 260 35 26 1 27 -1 27 -49z m662 24 c10 -3 26 -30 38 -62 90 -245 114 -309 123 -319 7 -10 -6 -13 -60 -13 l-69 0 -9 33 -10 32 -75 3 -76 3 -9 -33 c-10 -32 -11 -33 -72 -36 -35 -2 -63 1 -63 6 0 5 30 85 66 178 36 93 71 182 76 197 10 28 12 29 67 22 31 -3 64 -8 73 -11z m-1101 -201 c38 -82 74 -156 79 -165 15 -27 14 -28 -56 -28 -64 0 -65 1 -76 31 -7 20 -15 28 -25 25 -8 -3 -41 -6 -74 -6 -54 0 -60 -2 -69 -24 -8 -22 -16 -25 -74 -28 -37 -1 -65 -1 -63 2 1 3 18 34 37 70 18 36 51 100 71 143 20 43 39 81 42 84 5 4 104 35 135 42 2 1 35 -65 73 -146z m1474 127 c82 -28 143 -66 166 -103 10 -18 19 -35 19 -38 0 -13 -127 28 -147 48 -24 24 -87 45 -109 36 -36 -14 -5 -37 98 -73 125 -43 155 -61 164 -97 9 -32 -3 -52 -47 -78 -29 -17 -52 -20 -149 -20 -146 0 -190 21 -214 101 -6 21 -4 22 61 16 54 -4 72 -10 90 -28 17 -18 33 -24 66 -24 48 0 77 20 55 38 -7 5 -51 20 -98 32 -112 28 -131 39 -154 81 -22 40 -17 78 14 109 27 27 108 27 185 0z m15 -90 c12 -8 9 -10 -12 -10 -15 0 -30 5 -33 10 -8 13 25 13 45 0z m-10 -140 c0 -5 -12 -10 -27 -9 -25 0 -26 1 -8 9 27 12 35 12 35 0z m-1346 -229 c26 -26 31 -39 31 -77 0 -36 -5 -50 -21 -61 l-22 -14 29 -29 c22 -22 29 -38 29 -69 0 -87 -43 -126 -138 -126 -61 0 -65 2 -99 39 -34 36 -35 41 -30 90 5 38 13 57 32 74 22 18 23 23 11 28 -26 10 -41 76 -25 110 38 78 142 96 203 35z m666 4 c16 -15 32 -41 35 -57 8 -33 -10 -84 -31 -92 -10 -4 -5 -13 16 -35 25 -24 30 -38 30 -75 0 -39 -6 -52 -34 -84 -33 -36 -37 -37 -101 -37 -64 0 -68 1 -102 39 -34 36 -35 41 -30 90 5 38 13 57 32 74 21 17 23 23 12 28 -22 8 -40 59 -32 92 6 29 31 58 70 81 33 19 103 7 135 -24z m524 21 c18 -8 41 -24 50 -37 22 -33 20 -91 -5 -123 -18 -23 -19 -27 -4 -32 41 -16 53 -99 23 -157 -26 -50 -115 -71 -182 -43 -48 20 -66 51 -66 112 0 45 4 56 28 75 l27 23 -22 23 c-43 42 -20 132 40 158 41 18 70 18 111 1z m-1466 -116 c-3 -119 -3 -120 20 -120 19 0 22 -5 22 -35 0 -30 -3 -35 -24 -35 -23 0 -24 -3 -19 -35 8 -52 1 -62 -42 -57 l-37 4 5 44 5 44 -79 0 -79 0 0 36 c0 27 18 62 78 154 76 117 78 119 115 119 l39 1 -4 -120z m582 85 l0 -35 -75 0 c-41 0 -75 -3 -75 -7 0 -5 -4 -25 -9 -45 -9 -37 -8 -37 12 -23 62 44 150 -5 162 -89 9 -59 -8 -108 -52 -147 -33 -29 -41 -31 -90 -27 -63 6 -108 41 -119 96 -6 32 -6 32 35 32 29 0 41 -4 41 -14 0 -41 59 -59 92 -29 41 37 11 133 -42 133 -11 0 -28 -9 -37 -20 -11 -13 -30 -20 -51 -20 -29 0 -32 -2 -23 -14 8 -9 8 -16 2 -20 -13 -8 -19 24 -10 50 4 11 13 64 20 117 l12 97 104 0 103 0 0 -35z m670 0 l0 -35 -74 0 c-72 0 -74 0 -79 -27 -3 -16 -9 -37 -13 -47 -7 -19 -7 -19 16 -3 39 27 93 22 128 -13 35 -34 41 -59 32 -130 -6 -44 -13 -59 -45 -88 -35 -32 -40 -34 -93 -30 -48 4 -60 10 -89 41 -19 21 -33 47 -33 62 0 23 4 25 40 25 33 0 40 -3 40 -20 0 -40 69 -54 94 -18 50 71 -25 167 -84 108 -11 -11 -23 -19 -27 -19 -5 1 -18 1 -31 0 -19 -1 -22 -5 -17 -23 4 -17 3 -19 -3 -8 -7 10 -5 38 4 80 7 36 16 91 20 123 l7 57 103 0 104 0 0 -35z m550 0 l0 -35 -75 0 c-57 0 -75 -3 -75 -14 0 -7 -3 -29 -7 -47 -6 -33 -6 -34 14 -16 24 21 81 22 111 1 74 -52 67 -197 -12 -245 -79 -48 -196 2 -196 83 0 25 3 28 35 28 20 0 35 -5 35 -12 0 -20 32 -48 55 -48 31 0 59 35 59 75 0 62 -60 98 -97 57 -9 -10 -33 -19 -52 -20 -31 -2 -36 0 -31 15 3 10 10 50 16 88 6 39 13 82 16 98 l6 27 99 0 99 0 0 -35z m-550 -83 c0 -16 10 -41 21 -56 12 -15 19 -29 16 -32 -3 -3 -13 9 -24 26 -23 40 -71 70 -111 70 -17 0 -33 4 -36 9 -3 5 26 9 64 10 l70 1 0 -28z m-752 -112 c4 -12 2 -13 -9 -2 -15 14 -29 16 -29 4 0 -5 11 -14 25 -20 29 -13 33 -32 8 -32 -15 0 -16 -2 -3 -10 12 -7 12 -12 2 -22 -9 -9 -12 -9 -12 0 0 6 -7 9 -15 6 -10 -4 -15 0 -16 12 0 18 -1 18 -8 -1 -8 -19 -8 -19 -20 3 -7 12 -9 27 -6 32 8 13 -8 13 -22 -1 -7 -7 -13 -7 -17 -1 -8 14 63 50 93 48 14 0 26 -8 29 -16z m218 4 c-3 -9 -6 -24 -6 -35 0 -16 -7 -19 -45 -19 -45 0 -45 0 -45 35 l0 35 51 0 c43 0 50 -3 45 -16z m454 -10 c14 -36 12 -47 -5 -40 -8 3 -15 1 -15 -3 0 -5 5 -11 12 -13 23 -8 -2 -25 -31 -20 -20 3 -28 8 -24 18 3 8 -1 14 -11 14 -9 0 -16 5 -16 10 0 6 -7 10 -16 8 -10 -2 -19 3 -22 11 -3 9 0 12 10 9 8 -3 25 3 39 13 35 27 67 24 79 -7z m546 14 c5 -7 1 -9 -13 -6 -12 3 -27 1 -34 -4 -11 -8 -10 -9 2 -5 18 6 59 -18 59 -34 0 -5 -7 -9 -16 -9 -14 0 -14 -3 -4 -15 7 -8 11 -15 9 -16 -37 -8 -61 -2 -75 18 -8 13 -12 29 -8 35 5 7 3 8 -7 2 -19 -12 -69 -11 -69 1 0 6 16 10 35 11 20 0 43 8 53 17 19 20 57 22 68 5z m-1028 -85 c-10 -2 -18 -9 -18 -15 0 -6 8 -8 18 -6 14 4 24 -4 36 -26 9 -18 29 -39 43 -48 l27 -16 -24 0 c-84 -1 -208 -1 -227 0 -19 0 -18 3 12 29 18 16 38 42 45 59 11 28 16 30 59 29 25 -1 38 -3 29 -6z m-632 -51 c9 -16 28 -37 43 -46 21 -14 22 -16 5 -11 -12 3 -32 2 -45 -3 -41 -14 -56 -5 -51 31 8 66 21 74 48 29z m939 -3 c-5 -16 -4 -19 5 -14 7 4 15 3 19 -2 3 -5 16 -16 29 -25 21 -14 18 -15 -50 -15 l-73 0 35 37 c42 45 43 46 35 19z m340 -49 c19 -11 19 -11 -2 -7 -13 3 -38 1 -58 -3 -20 -5 -38 -4 -41 1 -3 6 -15 7 -27 3 -17 -5 -15 -1 9 20 18 14 37 26 43 26 6 0 8 8 4 18 -3 9 7 3 23 -15 16 -17 38 -36 49 -43z m-958 9 c21 -15 18 -16 -53 -17 l-76 0 36 24 c20 14 36 30 36 37 1 7 8 3 18 -8 9 -11 27 -28 39 -36z m1189 18 c5 -1 8 -5 7 -9 -2 -5 0 -7 5 -6 4 0 18 -4 32 -11 l25 -11 -27 5 c-15 3 -29 1 -33 -4 -3 -6 -17 -6 -35 -1 -16 5 -39 6 -52 4 -21 -4 -21 -4 -3 5 11 5 29 18 39 30 13 14 22 18 26 10 4 -6 11 -11 16 -12z"/> <path d="M1273 885 c0 -38 2 -53 4 -32 2 20 2 52 0 70 -2 17 -4 1 -4 -38z"/> <path d="M804 725 c0 -49 1 -71 3 -48 2 23 2 64 0 90 -2 26 -3 8 -3 -42z"/> <path d="M1972 587 c14 -14 38 -17 154 -17 76 0 134 3 131 7 -4 3 -64 7 -134 7 -71 1 -137 5 -148 10 -19 9 -19 9 -3 -7z"/> <path d="M1669 844 l-26 -74 49 0 c26 0 48 1 48 3 0 1 -11 34 -23 73 l-23 72 -25 -74z"/> <path d="M500 833 c0 -10 -9 -37 -19 -59 l-19 -41 47 5 c25 2 47 6 48 7 2 1 -7 25 -19 53 -22 53 -38 67 -38 35z"/> <path d="M656 435 c-36 -36 -6 -88 48 -83 23 2 33 10 40 31 7 19 7 34 0 45 -15 23 -67 27 -88 7z m50 -29 c12 -5 12 -2 3 15 -9 17 -8 20 3 17 15 -5 24 -68 9 -68 -5 0 -11 6 -14 13 -3 9 -7 9 -19 0 -26 -22 -30 -6 -11 45 5 15 6 15 10 0 2 -9 11 -19 19 -22z"/> <path d="M650 270 c-26 -26 -25 -51 1 -84 26 -34 62 -34 88 0 25 32 26 52 5 82 -19 28 -67 29 -94 2z m46 -9 c-3 -5 1 -12 10 -15 12 -5 15 -2 10 10 -4 10 -1 14 6 12 29 -10 16 -88 -14 -88 -6 0 -5 7 2 15 7 9 8 15 2 15 -5 0 -12 -7 -16 -15 -3 -8 -10 -15 -16 -15 -5 0 -10 7 -10 15 0 8 -5 15 -12 15 -9 0 -9 3 0 12 7 7 12 20 12 30 0 10 7 18 16 18 8 0 13 -4 10 -9z"/> <path d="M1320 429 c-26 -47 16 -91 69 -74 26 8 37 46 21 74 -15 29 -75 29 -90 0z m30 -10 c-11 -19 -10 -20 10 -9 11 6 18 15 15 20 -3 6 1 7 10 4 11 -5 13 -10 5 -19 -8 -9 -8 -15 0 -20 6 -3 8 -11 4 -16 -3 -6 -12 -5 -22 3 -12 10 -16 10 -19 0 -7 -19 -23 -3 -23 23 0 19 7 29 28 34 1 1 -2 -8 -8 -20z"/> <path d="M1320 270 c-11 -11 -20 -28 -20 -39 0 -29 39 -71 65 -71 26 0 65 42 65 71 0 27 -36 59 -65 59 -14 0 -34 -9 -45 -20z m24 -17 c-5 -17 -5 -17 9 0 28 34 57 16 57 -35 0 -18 -2 -19 -17 -7 -15 12 -16 12 -11 -8 5 -18 2 -21 -20 -20 -14 1 -29 9 -35 18 -11 18 -2 69 13 69 5 0 7 -8 4 -17z"/> <path d="M1882 438 c-7 -7 -12 -24 -12 -38 0 -34 17 -50 52 -50 18 0 33 8 44 25 15 23 15 27 0 50 -18 27 -63 34 -84 13z m68 -13 c11 -13 10 -14 -5 -9 -13 5 -16 3 -13 -7 3 -8 11 -13 18 -11 16 4 7 -21 -10 -26 -7 -3 -10 0 -6 7 4 6 1 11 -8 11 -8 0 -16 -6 -19 -12 -2 -7 -8 -10 -12 -5 -5 4 1 18 13 30 12 13 19 27 15 30 -3 4 -2 7 4 7 6 0 16 -7 23 -15z"/> <path d="M1877 272 c-24 -26 -21 -67 5 -92 43 -40 98 -14 98 47 0 55 -67 85 -103 45z m90 -28 c3 -8 1 -25 -5 -37 -10 -20 -11 -18 -11 16 -1 20 -5 37 -10 37 -5 0 -8 -18 -7 -40 2 -31 -1 -40 -14 -40 -12 0 -16 9 -14 39 3 53 10 64 35 50 11 -6 23 -17 26 -25z m-76 -11 c-4 -28 -6 -32 -9 -15 -3 22 3 52 11 52 1 0 1 -17 -2 -37z"/> <path d="M382 333 c-23 -36 -41 -67 -40 -68 2 -1 23 1 48 4 l45 6 0 63 c0 34 -2 62 -5 61 -3 0 -24 -30 -48 -66z"/> <path d="M1710 400 c20 -13 43 -13 35 0 -3 6 -16 10 -28 10 -18 0 -19 -2 -7 -10z"/> <path d="M56 468 c-9 -36 -8 -38 23 -32 20 4 30 1 34 -9 8 -22 -20 -44 -35 -29 -7 7 -18 12 -26 12 -20 0 2 -26 28 -33 22 -6 60 18 60 38 0 23 -30 46 -52 39 -15 -4 -19 -2 -16 7 3 8 17 14 31 14 15 -1 27 3 27 7 0 4 -15 8 -34 8 -26 0 -35 -5 -40 -22z"/> <path d="M90 351 c0 -5 -9 -13 -20 -16 -11 -4 -18 -10 -15 -15 3 -5 12 -7 20 -3 12 4 15 -4 15 -36 0 -23 5 -41 10 -41 6 0 10 27 10 60 0 33 -4 60 -10 60 -5 0 -10 -4 -10 -9z"/> <path d="M71 185 c-39 -44 -39 -55 -1 -55 20 0 30 -5 30 -15 0 -8 5 -15 10 -15 6 0 10 6 10 14 0 8 6 17 13 20 10 5 10 7 0 12 -7 3 -13 21 -13 40 0 43 -10 43 -49 -1z m29 -15 c0 -14 -7 -20 -22 -20 -20 0 -21 1 -3 20 10 11 20 20 22 20 1 0 3 -9 3 -20z"/> </g> </svg> 